<svg width="60" height="60" viewBox="0 0 60 60" fill="none" xmlns="http://www.w3.org/2000/svg">
<g clip-path="url(#clip0_0_754)">
<rect width="60" height="60" rx="30" fill="#EA5050"/>
<path d="M27.1518 49.8745L26.1368 55.9565L28.1513 56.2927L28.0404 56.9578L23.2017 56.1503L23.3127 55.4853L25.3272 55.8214L26.3421 49.7394L27.1518 49.8745Z" fill="white" fill-opacity="0.8"/>
<path d="M22.0352 48.6037C22.3904 48.796 22.6529 49.0158 22.8227 49.2633C22.9925 49.5107 23.0805 49.7657 23.0865 50.0282C23.0926 50.2908 23.0321 50.5395 22.9049 50.7744C22.6693 51.2099 22.3218 51.4551 21.8623 51.5102C21.4029 51.5653 20.8867 51.4378 20.3137 51.1277L19.1621 50.5045L19.1342 50.556C18.9327 50.9285 18.8781 51.2619 18.9706 51.5564C19.06 51.8566 19.268 52.0951 19.5946 52.2719C19.8753 52.4238 20.1576 52.4839 20.4413 52.4523C20.7163 52.4233 20.9524 52.2882 21.1497 52.0468L21.8888 52.4468C21.6927 52.7407 21.4485 52.9455 21.1562 53.0614C20.8581 53.1742 20.545 53.2121 20.2168 53.1753C19.8855 53.1441 19.568 53.0464 19.2643 52.882C18.6685 52.5596 18.3084 52.1573 18.1841 51.6752C18.051 51.1958 18.127 50.6925 18.4123 50.1654L19.8308 47.5441L20.4754 47.8929L20.1044 48.6811C20.355 48.5056 20.6442 48.3954 20.9722 48.3507C21.2913 48.3085 21.6456 48.3929 22.0352 48.6037ZM21.5933 49.1535C21.3182 49.0046 21.0446 48.9491 20.7723 48.9869C20.4942 49.0216 20.2416 49.1257 20.0145 49.2991C19.7873 49.4724 19.6055 49.6852 19.4691 49.9373L19.4644 49.9459L20.5559 50.5365C20.9799 50.766 21.321 50.8543 21.5792 50.8014C21.8286 50.7512 22.0122 50.6172 22.1301 50.3995C22.251 50.1761 22.2684 49.9522 22.1824 49.7279C22.0876 49.5062 21.8912 49.3147 21.5933 49.1535Z" fill="white" fill-opacity="0.8"/>
<path d="M18.4103 44.5276L13.2626 49.2664L12.7596 48.72L13.2962 48.1197C13.0177 48.1636 12.7119 48.144 12.3788 48.0611C12.0413 47.9733 11.7203 47.7641 11.4158 47.4334C11.0893 47.0787 10.8862 46.6945 10.8065 46.2809C10.7268 45.8673 10.7621 45.4584 10.9125 45.0543C11.0586 44.6454 11.3113 44.2755 11.6708 43.9445C12.0302 43.6136 12.4198 43.3923 12.8393 43.2806C13.2497 43.1684 13.6599 43.1716 14.0699 43.29C14.4708 43.408 14.8345 43.6443 15.161 43.999C15.4301 44.2914 15.6107 44.6077 15.7026 44.9481C15.7902 45.2837 15.7813 45.6107 15.6759 45.929L17.8543 43.9237L18.4103 44.5276ZM14.6957 44.5468C14.4751 44.3072 14.2258 44.147 13.9479 44.0664C13.6652 43.9902 13.3747 43.992 13.0763 44.0718C12.7779 44.1517 12.4946 44.3152 12.2261 44.5623C11.9577 44.8094 11.7714 45.0783 11.6672 45.369C11.5629 45.6598 11.5395 45.947 11.597 46.2306C11.6496 46.5186 11.7862 46.7825 12.0068 47.0221C12.2274 47.2618 12.4791 47.4197 12.7618 47.496C13.0397 47.5766 13.3278 47.577 13.6262 47.4971C13.9246 47.4173 14.208 47.2538 14.4764 47.0067C14.7448 46.7596 14.9311 46.4907 15.0354 46.1999C15.1396 45.9092 15.1654 45.6198 15.1128 45.3317C15.0553 45.0481 14.9163 44.7865 14.6957 44.5468Z" fill="white" fill-opacity="0.8"/>
<path d="M10.7346 30.6029C10.7712 31.0443 10.6928 31.4006 10.4995 31.6715C10.3063 31.9425 9.93047 32.1011 9.37212 32.1474L6.71347 32.3677L6.78287 33.2052L6.09142 33.2625L6.02203 32.425L4.85425 32.4139L4.79534 31.7029L5.95424 31.6069L5.83642 30.1851L6.52787 30.1278L6.64568 31.5496L9.30433 31.3293C9.60948 31.304 9.81212 31.2251 9.91227 31.0926C10.0059 30.9607 10.0398 30.7389 10.014 30.4272L9.97206 29.9208L10.6732 29.8627L10.7346 30.6029Z" fill="white" fill-opacity="0.8"/>
<path d="M10.542 26.1559C10.43 26.5979 10.2282 26.9702 9.93658 27.2727C9.64494 27.5752 9.28958 27.7842 8.87051 27.8999C8.44673 28.0076 7.98539 27.9983 7.48648 27.872C6.98756 27.7456 6.58135 27.5319 6.26784 27.2307C5.94801 26.928 5.73183 26.5742 5.6193 26.1693C5.50836 25.7582 5.50887 25.3316 5.62082 24.8895C5.73277 24.4474 5.93457 24.0751 6.22622 23.7726C6.51786 23.4702 6.87558 23.2651 7.29936 23.1573C7.71843 23.0417 8.17741 23.047 8.67632 23.1734C9.17524 23.2997 9.58461 23.5143 9.90443 23.817C10.2179 24.1182 10.4302 24.4743 10.5411 24.8855C10.6536 25.2903 10.6539 25.7138 10.542 26.1559ZM9.85992 25.9831C9.92869 25.7116 9.92635 25.4422 9.8529 25.1749C9.77945 24.9077 9.6285 24.6678 9.40004 24.4554C9.17158 24.243 8.86157 24.0872 8.47002 23.988C8.07847 23.8889 7.73168 23.8784 7.42965 23.9564C7.12923 24.0282 6.88312 24.1641 6.69132 24.3642C6.49953 24.5643 6.37004 24.797 6.30288 25.0622C6.23411 25.3338 6.23645 25.6032 6.3099 25.8704C6.38335 26.1377 6.5343 26.3775 6.76276 26.5899C6.99122 26.8024 7.30123 26.9581 7.69278 27.0573C8.08433 27.1564 8.43112 27.167 8.73315 27.0889C9.03517 27.0108 9.28128 26.8749 9.47148 26.6811C9.66327 26.481 9.79276 26.2484 9.85992 25.9831Z" fill="white" fill-opacity="0.8"/>
<path d="M18.6039 14.4841L14.1771 11.7876L14.8557 11.2595L18.4956 13.5654L17.1614 9.46483L17.8246 8.94865L19.3519 13.9019L18.6039 14.4841Z" fill="white" fill-opacity="0.8"/>
<path d="M22.2538 5.76106C22.0997 5.81394 21.9534 5.80907 21.8148 5.74644C21.6803 5.67553 21.5866 5.56306 21.5337 5.40902C21.4829 5.26114 21.4899 5.12098 21.5546 4.98855C21.6255 4.854 21.738 4.76029 21.8921 4.70741C22.0399 4.65664 22.1832 4.66257 22.3218 4.72519C22.4604 4.78782 22.555 4.89307 22.6058 5.04096C22.6587 5.195 22.6507 5.34237 22.582 5.48308C22.5111 5.61763 22.4017 5.71029 22.2538 5.76106ZM23.7884 11.4953L22.2146 6.911L22.991 6.64447L24.5648 11.2288L23.7884 11.4953Z" fill="white" fill-opacity="0.8"/>
<path d="M27.0518 10.6145C26.5893 10.6145 26.1788 10.5102 25.8205 10.3018C25.4622 10.0868 25.1788 9.79035 24.9704 9.4125C24.7684 9.03465 24.6674 8.58839 24.6674 8.07373C24.6674 7.56559 24.7684 7.12259 24.9704 6.74474C25.1723 6.36037 25.4525 6.06395 25.8108 5.85548C26.1756 5.6405 26.5958 5.53301 27.0714 5.53301C27.5404 5.53301 27.9443 5.6405 28.2831 5.85548C28.6284 6.06395 28.8922 6.34083 29.0746 6.68611C29.257 7.03138 29.3482 7.40272 29.3482 7.80012C29.3482 7.87178 29.345 7.94344 29.3385 8.0151C29.3385 8.08676 29.3385 8.16819 29.3385 8.2594H25.4785C25.4981 8.63074 25.5828 8.94018 25.7326 9.18774C25.8889 9.42879 26.0811 9.6112 26.3091 9.73498C26.5437 9.85875 26.7912 9.92064 27.0518 9.92064C27.3906 9.92064 27.674 9.84247 27.902 9.68611C28.13 9.52976 28.2961 9.31804 28.4004 9.05093H29.2114C29.0811 9.50045 28.8303 9.87504 28.459 10.1747C28.0942 10.4679 27.6251 10.6145 27.0518 10.6145ZM27.0518 6.22682C26.6609 6.22682 26.3124 6.34734 26.0062 6.58839C25.7065 6.82291 25.5339 7.16819 25.4883 7.62422L28.5372 7.62422C28.5176 7.18774 28.3678 6.84572 28.0876 6.59816C27.8075 6.3506 27.4622 6.22682 27.0518 6.22682Z" fill="white" fill-opacity="0.8"/>
<path d="M32.9917 10.0971L33.2253 5.05276L34.0017 5.31929L33.7378 9.2478L36.0443 6.02052L36.9223 6.32195L36.7694 10.2885L38.9649 7.02317L39.7505 7.29288L36.8366 11.4171L36.0417 11.1442L36.2119 6.97692L33.7865 10.37L32.9917 10.0971Z" fill="white" fill-opacity="0.8"/>
<path d="M45.0207 16.7295L49.0784 14.0785L49.4846 14.7002L48.9276 15.1341C49.2313 15.1225 49.5144 15.1866 49.7769 15.3263C50.0394 15.4661 50.2597 15.6723 50.4379 15.945C50.6481 16.2668 50.7626 16.585 50.7814 16.8995C50.8037 17.2196 50.7222 17.5296 50.5369 17.8297C50.875 17.8111 51.1951 17.8782 51.4972 18.031C51.803 18.1892 52.0502 18.4129 52.2391 18.7019C52.5562 19.1873 52.6619 19.6708 52.5563 20.1522C52.4561 20.6301 52.1033 21.0668 51.4979 21.4624L49.1255 23.0124L48.6819 22.3333L50.9807 20.8315C51.4006 20.5571 51.6617 20.2659 51.7639 19.9579C51.8662 19.6498 51.814 19.3376 51.6073 19.0213C51.3935 18.6941 51.0872 18.5051 50.6883 18.4544C50.2985 18.4057 49.8691 18.5345 49.4 18.8409L47.2976 20.2145L46.8486 19.5273L49.1474 18.0254C49.5673 17.7511 49.8284 17.4599 49.9307 17.1518C50.0329 16.8438 49.9807 16.5316 49.774 16.2153C49.5638 15.8935 49.2593 15.7073 48.8604 15.6566C48.4706 15.6078 48.0411 15.7366 47.5721 16.0431L45.4696 17.4167L45.0207 16.7295Z" fill="white" fill-opacity="0.8"/>
<path d="M49.3442 26.0888C49.2322 25.6467 49.2325 25.2232 49.3451 24.8184C49.4576 24.4136 49.6706 24.0606 49.9841 23.7594C50.3056 23.463 50.7157 23.2516 51.2146 23.1252C51.7136 22.9989 52.1725 22.9935 52.5916 23.1092C53.017 23.2232 53.3755 23.4315 53.6672 23.734C53.9604 24.0428 54.163 24.4182 54.275 24.8603C54.3869 25.3024 54.3866 25.7258 54.2741 26.1307C54.1615 26.5355 53.9446 26.8861 53.6231 27.1826C53.3096 27.4837 52.9034 27.6975 52.4045 27.8238C51.9056 27.9502 51.4434 27.9563 51.0181 27.8423C50.599 27.7266 50.2428 27.5144 49.9496 27.2056C49.6579 26.9031 49.4561 26.5308 49.3442 26.0888ZM50.0263 25.9161C50.095 26.1876 50.2253 26.4234 50.4171 26.6235C50.6089 26.8236 50.8558 26.9627 51.1578 27.0408C51.4599 27.1189 51.8066 27.1083 52.1982 27.0092C52.5897 26.91 52.8997 26.7542 53.1282 26.5418C53.3583 26.3357 53.51 26.099 53.5835 25.8318C53.6569 25.5645 53.6601 25.2983 53.5929 25.033C53.5241 24.7615 53.3938 24.5256 53.2021 24.3256C53.0103 24.1255 52.7633 23.9864 52.4613 23.9083C52.1593 23.8302 51.8125 23.8408 51.421 23.9399C51.0294 24.0391 50.7194 24.1949 50.4909 24.4073C50.2625 24.6197 50.1107 24.8564 50.0357 25.1173C49.9622 25.3846 49.9591 25.6508 50.0263 25.9161Z" fill="white" fill-opacity="0.8"/>
<path d="M50.2098 30.3535L55.0402 30.7537L54.9789 31.4939L54.048 31.4854C54.3538 31.6611 54.5882 31.9093 54.7512 32.23C54.9142 32.5508 54.9771 32.9351 54.94 33.3831L54.083 33.3121L54.1015 33.0881C54.1252 32.8025 54.0951 32.5352 54.0111 32.2864C53.9336 32.0381 53.7807 31.8326 53.5523 31.6698C53.3239 31.5071 52.9987 31.4082 52.5767 31.3733L50.142 31.1715L50.2098 30.3535Z" fill="white" fill-opacity="0.8"/>
<path d="M49.4218 34.8974C49.6076 34.4739 49.8679 34.1399 50.2028 33.8955C50.5436 33.6537 50.9288 33.5133 51.3586 33.4741C51.7858 33.441 52.235 33.5278 52.7063 33.7345C53.1717 33.9386 53.5368 34.209 53.8017 34.5458C54.0725 34.8851 54.2315 35.2607 54.2785 35.6726C54.3288 36.093 54.2584 36.521 54.0674 36.9565C53.879 37.3861 53.6183 37.7128 53.2853 37.9367C52.9557 38.1691 52.5962 38.2995 52.2067 38.3279C51.8172 38.3562 51.4405 38.2906 51.0766 38.1309C51.011 38.1022 50.9467 38.0704 50.8837 38.0356C50.818 38.0069 50.7435 37.9741 50.6599 37.9375L52.2105 34.4027C51.8626 34.2714 51.5452 34.2247 51.2583 34.2624C50.9747 34.3088 50.7305 34.4115 50.5255 34.5706C50.318 34.7357 50.1618 34.9375 50.0572 35.1761C49.9211 35.4864 49.8788 35.7773 49.9304 36.0489C49.982 36.3205 50.1092 36.5577 50.3119 36.7605L49.9861 37.5032C49.6268 37.2033 49.3845 36.8232 49.2592 36.3627C49.1373 35.9109 49.1915 35.4224 49.4218 34.8974ZM53.4399 36.6599C53.5969 36.302 53.6265 35.9344 53.5288 35.5572C53.4344 35.1885 53.1875 34.8917 52.7882 34.6668L51.5635 37.4588C51.9711 37.6163 52.3445 37.6164 52.6837 37.4594C53.023 37.3023 53.275 37.0358 53.4399 36.6599Z" fill="white" fill-opacity="0.8"/>
<path d="M44.3469 47.8693L44.6772 48.4795L41.2738 50.3213L40.9436 49.7111L44.3469 47.8693Z" fill="white" fill-opacity="0.8"/>
<path d="M34.0717 25.9283L25.114 34.886" stroke="white" stroke-opacity="0.8" stroke-width="1.2215" stroke-linecap="round"/>
<path d="M29.1857 25.2211C29.1857 25.2211 33.7732 24.8344 34.4695 25.5306C35.1657 26.2268 34.7788 30.8144 34.7788 30.8144" stroke="white" stroke-opacity="0.8" stroke-width="1.2215" stroke-linecap="round" stroke-linejoin="round"/>
<circle cx="30" cy="29.9999" r="14.8209" stroke="white" stroke-opacity="0.8" stroke-width="0.325734"/>
</g>
<defs>
<clipPath id="clip0_0_754">
<rect width="60" height="60" rx="30" fill="white"/>
</clipPath>
</defs>
</svg>
