<svg width="1440" height="680" viewBox="0 0 1440 680" fill="none" xmlns="http://www.w3.org/2000/svg">
<line x1="4" y1="-0.48" x2="1435.36" y2="-0.479875" stroke="#1E1E1E" stroke-opacity="0.12" stroke-width="0.96"/>
<line x1="4" y1="76.32" x2="1435.36" y2="76.3202" stroke="#1E1E1E" stroke-opacity="0.12" stroke-width="0.96"/>
<line x1="4" y1="153.12" x2="1435.36" y2="153.12" stroke="#1E1E1E" stroke-opacity="0.12" stroke-width="0.96"/>
<line x1="4" y1="229.92" x2="1435.36" y2="229.921" stroke="#1E1E1E" stroke-opacity="0.12" stroke-width="0.96"/>
<line x1="4" y1="306.72" x2="1435.36" y2="306.721" stroke="#1E1E1E" stroke-opacity="0.12" stroke-width="0.96"/>
<line x1="4" y1="383.52" x2="1435.36" y2="383.521" stroke="#1E1E1E" stroke-opacity="0.12" stroke-width="0.96"/>
<line x1="4" y1="460.321" x2="1435.36" y2="460.321" stroke="#1E1E1E" stroke-opacity="0.12" stroke-width="0.96"/>
<line x1="4" y1="537.121" x2="1435.36" y2="537.121" stroke="#1E1E1E" stroke-opacity="0.12" stroke-width="0.96"/>
<line x1="4" y1="613.921" x2="1435.36" y2="613.921" stroke="#1E1E1E" stroke-opacity="0.12" stroke-width="0.96"/>
<line x1="0.48003" y1="2.09815e-08" x2="0.480001" y2="679.68" stroke="#1E1E1E" stroke-opacity="0.12" stroke-width="0.96"/>
<line x1="96.48" y1="2.09815e-08" x2="96.48" y2="679.68" stroke="#1E1E1E" stroke-opacity="0.12" stroke-width="0.96"/>
<line x1="192.48" y1="2.09815e-08" x2="192.48" y2="679.68" stroke="#1E1E1E" stroke-opacity="0.12" stroke-width="0.96"/>
<line x1="288.48" y1="2.09815e-08" x2="288.48" y2="679.68" stroke="#1E1E1E" stroke-opacity="0.12" stroke-width="0.96"/>
<line x1="384.48" y1="2.09815e-08" x2="384.48" y2="679.68" stroke="#1E1E1E" stroke-opacity="0.12" stroke-width="0.96"/>
<line x1="480.48" y1="2.09815e-08" x2="480.48" y2="679.68" stroke="#1E1E1E" stroke-opacity="0.12" stroke-width="0.96"/>
<line x1="576.48" y1="2.09815e-08" x2="576.48" y2="679.68" stroke="#1E1E1E" stroke-opacity="0.12" stroke-width="0.96"/>
<line x1="672.48" y1="2.09815e-08" x2="672.48" y2="679.68" stroke="#1E1E1E" stroke-opacity="0.12" stroke-width="0.96"/>
<line x1="768.48" y1="2.09815e-08" x2="768.48" y2="679.68" stroke="#1E1E1E" stroke-opacity="0.12" stroke-width="0.96"/>
<line x1="864.48" y1="2.09815e-08" x2="864.48" y2="679.68" stroke="#1E1E1E" stroke-opacity="0.12" stroke-width="0.96"/>
<line x1="960.48" y1="2.09815e-08" x2="960.48" y2="679.68" stroke="#1E1E1E" stroke-opacity="0.12" stroke-width="0.96"/>
<line x1="1056.48" y1="2.09815e-08" x2="1056.48" y2="679.68" stroke="#1E1E1E" stroke-opacity="0.12" stroke-width="0.96"/>
<line x1="1152.48" y1="2.09815e-08" x2="1152.48" y2="679.68" stroke="#1E1E1E" stroke-opacity="0.12" stroke-width="0.96"/>
<line x1="1248.48" y1="2.09815e-08" x2="1248.48" y2="679.68" stroke="#1E1E1E" stroke-opacity="0.12" stroke-width="0.96"/>
<line x1="1344.48" y1="2.09815e-08" x2="1344.48" y2="679.68" stroke="#1E1E1E" stroke-opacity="0.12" stroke-width="0.96"/>
</svg>
