<svg width="40" height="40" viewBox="0 0 40 40" fill="none" xmlns="http://www.w3.org/2000/svg">
<rect width="40" height="40" rx="20" fill="white" fill-opacity="0.12"/>
<path d="M9.64645 19.6464C9.45118 19.8417 9.45118 20.1583 9.64645 20.3536L12.8284 23.5355C13.0237 23.7308 13.3403 23.7308 13.5355 23.5355C13.7308 23.3403 13.7308 23.0237 13.5355 22.8284L10.7071 20L13.5355 17.1716C13.7308 16.9763 13.7308 16.6597 13.5355 16.4645C13.3403 16.2692 13.0237 16.2692 12.8284 16.4645L9.64645 19.6464ZM30 20.5C30.2761 20.5 30.5 20.2761 30.5 20C30.5 19.7239 30.2761 19.5 30 19.5V20.5ZM10 20.5H30V19.5H10V20.5Z" fill="white"/>
</svg>
