<svg width="200" height="200" viewBox="0 0 200 200" fill="none" xmlns="http://www.w3.org/2000/svg">
<path d="M102.439 75.6097C102.439 74.2627 101.347 73.1707 100 73.1707C98.653 73.1707 97.561 74.2627 97.561 75.6097L102.439 75.6097ZM98.2753 126.115C99.2278 127.067 100.772 127.067 101.725 126.115L117.247 110.593C118.199 109.641 118.199 108.096 117.247 107.144C116.294 106.191 114.75 106.191 113.797 107.144L100 120.941L86.2028 107.144C85.2503 106.191 83.706 106.191 82.7535 107.144C81.801 108.096 81.801 109.641 82.7535 110.593L98.2753 126.115ZM97.561 75.6097L97.561 124.39L102.439 124.39L102.439 75.6097L97.561 75.6097Z" fill="#1E1E1E"/>
<path d="M99.7493 179.458L101.133 179.525L100.493 192.583L99.1096 192.515L99.398 186.629L94.8571 186.407L90.4566 192.091L88.8 192.01L93.6959 185.784L89.4202 178.952L91.0768 179.033L94.884 185.06L99.4638 185.285L99.7493 179.458Z" fill="#1E1E1E"/>
<path d="M74.2942 175.284L83.8918 177.838L80.5294 190.471L70.9318 187.917L71.258 186.691L79.5168 188.89L80.7012 184.44L72.7252 182.317L73.0464 181.11L81.0224 183.233L82.2268 178.707L73.968 176.509L74.2942 175.284Z" fill="#1E1E1E"/>
<path d="M59.5426 168.486L68.4221 172.935L62.5659 184.623L53.6864 180.174L54.2545 179.04L61.8954 182.869L63.9582 178.752L56.579 175.055L57.1384 173.938L64.5176 177.635L66.6154 173.449L58.9745 169.62L59.5426 168.486Z" fill="#1E1E1E"/>
<path d="M53.1815 164.164L54.2625 165.03L46.0864 175.231L41.397 171.472C39.1893 169.703 38.6492 167.195 40.3942 165.017C42.1515 162.825 44.7173 162.806 46.925 164.575L50.5334 167.468L53.1815 164.164ZM42.2816 170.556L45.7986 173.375L49.7402 168.457L46.2232 165.638C44.4266 164.198 42.8816 164.16 41.4905 165.896C40.1237 167.601 40.485 169.116 42.2816 170.556Z" fill="#1E1E1E"/>
<path d="M33.2106 142.477C35.3009 145.703 34.7379 148.207 32.642 149.565L32.5437 149.628L31.7797 148.449L31.9926 148.312C33.5646 147.293 33.7794 145.759 32.1134 143.188C30.6916 140.994 29.4384 140.387 28.1939 141.194C26.9658 141.99 27.0012 143.013 27.7136 144.83L28.7783 147.442C29.591 149.449 29.7609 151.362 27.9434 152.54C26.4533 153.505 24.1191 153.204 22.0818 150.06C20.0763 146.966 20.8224 144.529 22.8201 143.235L22.9184 143.171L23.6824 144.35L23.4859 144.477C21.8976 145.506 21.6827 147.041 23.232 149.431C24.6432 151.609 25.9021 152.189 27.0975 151.414C28.342 150.607 28.2517 149.643 27.5451 147.799L26.5074 145.193C25.6107 142.984 25.6287 141.182 27.3317 140.078C28.9037 139.06 31.2369 139.431 33.2106 142.477Z" fill="#1E1E1E"/>
<path d="M25.6517 127.161C26.9882 130.744 25.4428 134.195 21.6219 135.62C17.8009 137.045 14.3736 135.449 13.0371 131.866C11.8575 128.703 12.7376 125.647 15.5164 124.61L15.7358 124.529L16.2609 125.936L16.0415 126.018C13.9573 126.795 13.2894 128.69 14.2918 131.377C15.4305 134.43 17.7831 135.49 21.1105 134.249C24.4378 133.008 25.5221 130.666 24.3834 127.613C23.381 124.926 21.6358 123.932 19.5516 124.709L19.3322 124.791L18.8072 123.383L19.0266 123.301C21.8054 122.265 24.4652 123.98 25.6517 127.161Z" fill="#1E1E1E"/>
<path d="M21.8043 113.966L21.9869 115.339L9.02783 117.062L8.1842 110.718C7.82412 108.01 8.95305 105.99 11.3321 105.674C13.5178 105.383 15.0852 106.809 15.4621 109.199L15.5588 109.186C15.6778 108.304 16.1744 107.746 16.8696 107.201L20.5106 104.237L20.7215 105.823L17.2752 108.624C16.2795 109.425 15.9053 110.164 16.1342 111.885L16.5046 114.671L21.8043 113.966ZM10.1024 115.522L15.4021 114.817L14.7437 109.866C14.4711 107.815 13.5147 106.84 11.6772 107.085C9.83969 107.329 9.17137 108.52 9.444 110.57L10.1024 115.522Z" fill="#1E1E1E"/>
<path d="M21.2292 92.0396C20.8701 95.9059 17.9771 98.3611 13.9165 97.9841C9.8559 97.607 7.46438 94.6611 7.82341 90.7948C8.18604 86.8896 11.0791 84.4344 15.1397 84.8115C19.2003 85.1885 21.5918 88.1345 21.2292 92.0396ZM19.8886 91.9151C20.1953 88.6123 18.5404 86.597 15.0044 86.2686C11.4684 85.9403 9.47069 87.6164 9.16398 90.9192C8.85908 94.2027 10.5158 96.1986 14.0518 96.5269C17.5878 96.8553 19.5837 95.1986 19.8886 91.9151Z" fill="#1E1E1E"/>
<path d="M26.0521 70.6568L23.0944 79.8718L10.6467 75.8766L11.0701 74.5575L22.3102 78.1652L24.8445 70.2692L26.0521 70.6568Z" fill="#1E1E1E"/>
<path d="M33.5377 56.2463L28.7714 64.6693L17.3935 58.2311L18.0758 57.0253L28.3499 62.839L32.4338 55.6217L33.5377 56.2463Z" fill="#1E1E1E"/>
<path d="M38.4327 49.8539L37.5633 50.9325L27.385 42.7282L28.2544 41.6496L38.4327 49.8539Z" fill="#1E1E1E"/>
<path d="M44.8576 42.703L43.8117 43.6115L35.2382 33.7422L36.3871 32.7441L47.3798 34.9549L50.0061 35.5681L50.0945 35.4914L48.6574 33.8966L42.8095 27.1649L43.8553 26.2564L52.4289 36.1256L51.2799 37.1237L40.3807 34.9611L37.6974 34.3715L37.6238 34.4354L39.0864 36.0596L44.8576 42.703Z" fill="#1E1E1E"/>
<path d="M63.5196 29.6541C60.2202 31.3872 56.6715 30.2537 54.7751 26.6434C52.8787 23.0331 54.0459 19.4226 57.5007 17.6079C60.5064 16.0291 63.6141 16.4906 64.966 19.0645L65.0477 19.2199L63.7175 19.9186L63.6359 19.7631C62.6287 17.8457 60.6661 17.466 58.1095 18.8089C55.1902 20.3423 54.4193 22.819 56.0707 25.9629C57.722 29.1068 60.1814 29.8867 63.0662 28.3715C65.8128 26.9288 66.6158 25.1846 65.4363 22.939L65.2094 22.5071L60.6145 24.9206L60.1064 23.9533L65.9451 20.8865L68.9393 26.587L67.8337 27.1677L66.509 24.6456L66.4227 24.691C66.8153 26.8651 65.5752 28.5744 63.5196 29.6541Z" fill="#1E1E1E"/>
<path d="M87.1133 16.3945L81.8955 17.3652L81.6707 16.1566L86.8885 15.186L87.1133 16.3945Z" fill="#1E1E1E"/>
<path d="M105.151 20.6102L103.774 20.4595L105.196 7.46391L106.573 7.6146L105.932 13.4723L110.452 13.9669L115.185 8.55697L116.834 8.73738L111.573 14.6588L115.431 21.7351L113.782 21.5547L110.344 15.3095L105.786 14.8107L105.151 20.6102Z" fill="#1E1E1E"/>
<path d="M130.31 26.304L120.883 23.1783L124.997 10.7694L134.424 13.8951L134.025 15.099L125.913 12.4093L124.464 16.7801L132.298 19.3777L131.905 20.5631L124.071 17.9655L122.597 22.4104L130.709 25.1001L130.31 26.304Z" fill="#1E1E1E"/>
<path d="M144.627 33.9745L136.03 29.0007L142.577 17.685L151.174 22.6588L150.539 23.7566L143.141 19.4766L140.835 23.4624L147.979 27.5958L147.354 28.6767L140.21 24.5433L137.864 28.5967L145.262 32.8767L144.627 33.9745Z" fill="#1E1E1E"/>
<path d="M150.717 38.6709L149.69 37.7412L158.463 28.0492L162.919 32.0824C165.016 33.9811 165.405 36.5174 163.533 38.586C161.647 40.6691 159.085 40.5341 156.987 38.6353L153.559 35.5319L150.717 38.6709ZM161.981 32.9441L158.639 29.9192L154.41 34.5916L157.751 37.6165C159.458 39.1617 160.998 39.2923 162.491 37.6432C163.958 36.023 163.688 34.4893 161.981 32.9441Z" fill="#1E1E1E"/>
<path d="M169.351 61.517C167.458 58.1716 168.17 55.706 170.343 54.476L170.445 54.4183L171.137 55.641L170.916 55.7659C169.286 56.6884 168.98 58.207 170.488 60.8732C171.776 63.1488 172.991 63.8291 174.281 63.0988C175.555 62.3781 175.581 61.3545 174.979 59.4981L174.073 56.8272C173.382 54.7743 173.327 52.8549 175.212 51.7882C176.757 50.9138 179.069 51.3543 180.914 54.6148C182.731 57.8244 181.84 60.2119 179.768 61.3842L179.666 61.4419L178.974 60.2192L179.178 60.1038C180.825 59.1717 181.131 57.6531 179.729 55.1738C178.45 52.9152 177.229 52.2614 175.989 52.9629C174.698 53.6932 174.731 54.6614 175.325 56.5444L176.205 59.208C176.967 61.4668 176.841 63.2645 175.075 64.2639C173.445 65.1864 171.138 64.6757 169.351 61.517Z" fill="#1E1E1E"/>
<path d="M175.977 77.2587C174.858 73.6017 176.607 70.2504 180.507 69.0571C184.407 67.8639 187.732 69.6622 188.851 73.3192C189.839 76.5471 188.777 79.5451 185.941 80.413L185.717 80.4815L185.277 79.0448L185.501 78.9763C187.628 78.3254 188.409 76.4746 187.569 73.7318C186.616 70.6159 184.331 69.4174 180.935 70.4565C177.539 71.4956 176.317 73.7675 177.27 76.8834C178.109 79.6262 179.792 80.7234 181.919 80.0725L182.143 80.004L182.582 81.4407L182.358 81.5092C179.522 82.377 176.97 80.5053 175.977 77.2587Z" fill="#1E1E1E"/>
<path d="M179.026 90.661L178.926 89.2793L191.965 88.3367L192.426 94.7201C192.623 97.4447 191.375 99.3934 188.981 99.5664C186.782 99.7254 185.303 98.2086 185.07 95.7996L184.973 95.8066C184.801 96.6798 184.272 97.2071 183.546 97.7096L179.733 100.45L179.618 98.8543L183.226 96.2655C184.268 95.525 184.686 94.8101 184.561 93.078L184.358 90.2756L179.026 90.661ZM190.8 89.8099L185.467 90.1954L185.827 95.1775C185.977 97.2404 186.873 98.2712 188.722 98.1375C190.57 98.0039 191.309 96.855 191.16 94.7921L190.8 89.8099Z" fill="#1E1E1E"/>
<path d="M178.284 112.582C178.874 108.745 181.91 106.467 185.94 107.087C189.971 107.707 192.181 110.792 191.591 114.629C190.995 118.506 187.959 120.783 183.929 120.163C179.898 119.543 177.688 116.459 178.284 112.582ZM179.615 112.787C179.11 116.066 180.641 118.177 184.151 118.716C187.661 119.256 189.756 117.703 190.26 114.425C190.762 111.165 189.228 109.074 185.718 108.534C182.208 107.994 180.116 109.528 179.615 112.787Z" fill="#1E1E1E"/>
<path d="M172.187 133.637L175.692 124.616L187.877 129.351L187.376 130.643L176.372 126.367L173.369 134.096L172.187 133.637Z" fill="#1E1E1E"/>
<path d="M163.85 147.573L169.113 139.451L180.084 146.56L179.331 147.723L169.424 141.303L164.914 148.262L163.85 147.573Z" fill="#1E1E1E"/>
<path d="M158.58 153.66L159.513 152.635L169.18 161.435L168.248 162.46L158.58 153.66Z" fill="#1E1E1E"/>
<path d="M151.737 160.412L152.836 159.568L160.802 169.934L159.595 170.861L148.755 167.995L146.17 167.225L146.077 167.297L147.416 168.975L152.849 176.045L151.751 176.889L143.785 166.523L144.992 165.596L155.742 168.409L158.385 169.158L158.462 169.099L157.099 167.39L151.737 160.412Z" fill="#1E1E1E"/>
<path d="M132.326 172.318C135.724 170.786 139.198 172.13 140.874 175.848C142.551 179.565 141.169 183.099 137.611 184.704C134.516 186.099 131.442 185.452 130.247 182.802L130.175 182.642L131.544 182.024L131.617 182.184C132.507 184.158 134.443 184.655 137.076 183.468C140.082 182.113 141 179.687 139.54 176.449C138.08 173.212 135.672 172.286 132.702 173.625C129.874 174.901 128.967 176.594 130.01 178.906L130.211 179.351L134.942 177.217L135.391 178.213L129.379 180.924L126.732 175.054L127.871 174.541L129.042 177.138L129.131 177.098C128.869 174.904 130.209 173.272 132.326 172.318Z" fill="#1E1E1E"/>
<path d="M111.638 184.138L116.904 183.482L117.056 184.702L111.79 185.357L111.638 184.138Z" fill="#1E1E1E"/>
</svg>
