<svg width="25" height="20" viewBox="0 0 25 20" fill="none" xmlns="http://www.w3.org/2000/svg">
<path d="M1.38889 20H23.6111C24.375 20 25 19.25 25 18.3333C25 17.4167 24.375 16.6667 23.6111 16.6667H1.38889C0.625 16.6667 0 17.4167 0 18.3333C0 19.25 0.625 20 1.38889 20ZM1.38889 11.6667H23.6111C24.375 11.6667 25 10.9167 25 10C25 9.08333 24.375 8.33333 23.6111 8.33333H1.38889C0.625 8.33333 0 9.08333 0 10C0 10.9167 0.625 11.6667 1.38889 11.6667ZM0 1.66667C0 2.58333 0.625 3.33333 1.38889 3.33333H23.6111C24.375 3.33333 25 2.58333 25 1.66667C25 0.75 24.375 0 23.6111 0H1.38889C0.625 0 0 0.75 0 1.66667Z" fill="black"/>
</svg>
