<svg width="266" height="16" viewBox="0 0 266 16" fill="none" xmlns="http://www.w3.org/2000/svg">
<path d="M4 8C10.1429 2.66667 16.2857 2.66667 22.4286 8C28.5714 13.3333 34.7143 13.3333 40.8571 8C47 2.66667 53.1429 2.66667 59.2857 8C65.4286 13.3333 71.5714 13.3333 77.7143 8C83.8571 2.66667 90 2.66667 96.1429 8C102.286 13.3333 108.429 13.3333 114.571 8C120.714 2.66667 126.857 2.66667 133 8C139.143 13.3333 145.286 13.3333 151.429 8C157.571 2.66667 163.714 2.66667 169.857 8C176 13.3333 182.143 13.3333 188.286 8C194.429 2.66667 200.571 2.66667 206.714 8C212.857 13.3333 219 13.3333 225.143 8C231.286 2.66667 237.429 2.66667 243.571 8C249.714 13.3333 255.857 13.3333 262 8" stroke="#E52424" stroke-opacity="0.8" stroke-width="8" stroke-linecap="round"/>
</svg>
